# Blender v2.79 (sub 0) OBJ File: '2.blend'
# www.blender.org
mtllib 2.mtl
o Box_Plane.003
v -0.750267 -0.750000 -0.999981
v 0.749733 -0.750000 -0.999981
v -0.750267 0.750000 -0.999981
v 0.749733 0.750000 -0.999981
v -1.000267 0.750000 0.750019
v -1.000267 -0.750000 0.750019
v -1.000267 0.750000 -0.749981
v -1.000267 -0.750000 -0.749981
v -0.750267 -0.750000 1.000019
v 0.749733 -0.750000 1.000019
v -0.750267 0.750000 1.000019
v 0.749733 0.750000 1.000019
v -0.750267 1.000000 0.750019
v 0.749733 1.000000 0.750019
v -0.750267 1.000000 -0.749981
v 0.749733 1.000000 -0.749981
v -0.839172 0.967969 0.750019
v 0.838640 0.967969 0.750019
v -0.839172 0.967969 -0.749981
v 0.838640 0.967969 -0.749981
v -0.919016 0.918750 0.750019
v 0.918484 0.918750 0.750019
v -0.919016 0.918750 -0.749981
v 0.918484 0.918750 -0.749981
v -0.745892 0.838906 0.967989
v 0.749733 0.838906 0.967989
v -0.745892 0.838906 -0.967949
v 0.749733 0.838906 -0.967949
v -0.745892 0.967969 0.838926
v 0.749733 0.967969 0.838926
v -0.745892 0.967969 -0.838886
v 0.749733 0.967969 -0.838886
v -0.750267 0.918750 0.918771
v 0.749733 0.918750 0.918771
v -0.750267 0.918750 -0.918729
v 0.749733 0.918750 -0.918729
v -0.968235 0.838906 0.750019
v 0.967703 0.838906 0.750019
v -0.968235 0.838906 -0.749981
v 0.967703 0.838906 -0.749981
v -0.750267 -1.000000 -0.749981
v 0.749733 -1.000000 -0.749981
v -0.750267 -1.000000 0.750019
v 0.749733 -1.000000 0.750019
v -0.839172 -0.967969 -0.749981
v 0.838640 -0.967969 -0.749981
v -0.839172 -0.967969 0.750019
v 0.838640 -0.967969 0.750019
v -0.919016 -0.918750 -0.749981
v 0.918484 -0.918750 -0.749981
v -0.919016 -0.918750 0.750019
v 0.918484 -0.918750 0.750019
v -0.745892 -0.838906 -0.967949
v 0.749733 -0.838906 -0.967949
v -0.745892 -0.838906 0.967989
v 0.749733 -0.838906 0.967989
v -0.745892 -0.967969 -0.838886
v 0.749733 -0.967969 -0.838886
v -0.745892 -0.967969 0.838926
v 0.749733 -0.967969 0.838926
v -0.750267 -0.918750 -0.918729
v 0.749733 -0.918750 -0.918729
v -0.750267 -0.918750 0.918771
v 0.749733 -0.918750 0.918771
v -0.968235 -0.838906 -0.749981
v 0.967703 -0.838906 -0.749981
v -0.968235 -0.838906 0.750019
v 0.967703 -0.838906 0.750019
v -0.839172 -0.745625 -0.967949
v -0.968235 0.745625 -0.838886
v -0.839172 0.745625 -0.967949
v -0.968235 -0.745625 -0.838886
v -0.919016 -0.750000 -0.918729
v -0.919016 0.750000 -0.918729
v -0.969725 0.745625 0.837724
v -0.920531 0.750000 0.917548
v -0.839172 0.745625 0.967989
v -0.968235 -0.745625 0.838926
v -0.919016 -0.750000 0.918771
v -0.839172 -0.745625 0.967989
v 0.838640 -0.745625 0.967989
v 0.838640 0.745625 0.967989
v 0.967703 -0.745625 0.838926
v 0.967703 0.745625 0.838926
v 0.918484 -0.750000 0.918771
v 0.918484 0.750000 0.918771
v 0.918484 0.750000 -0.918729
v 0.918484 -0.750000 -0.918729
v 0.838640 0.745625 -0.967949
v 0.838640 -0.745625 -0.967949
v 0.967703 0.745625 -0.838886
v 0.967703 -0.745625 -0.838886
v -0.919016 -0.838910 0.838929
v -0.839177 0.918750 0.838929
v -0.919016 0.838910 0.838929
v -0.839177 0.838910 0.918771
v -0.839177 -0.918750 0.838929
v -0.839177 -0.838910 0.918771
v 0.838643 0.918750 -0.838891
v 0.838643 0.918750 0.838929
v -0.839177 0.918750 -0.838891
v 0.838643 -0.918750 0.838929
v 0.838643 -0.918750 -0.838891
v -0.839177 -0.918750 -0.838891
v -0.919016 -0.838910 -0.838891
v -0.839177 -0.838910 -0.918729
v -0.839177 0.838910 -0.918729
v -0.919016 0.838910 -0.838891
v 0.838643 0.838910 0.918771
v 0.918484 0.838910 0.838929
v 0.838643 -0.838910 0.918771
v 0.918484 -0.838910 0.838929
v 0.838643 0.838910 -0.918729
v 0.918484 0.838910 -0.838891
v 0.838643 -0.838910 -0.918729
v 0.918484 -0.838910 -0.838891
v 1.249733 -0.750000 -0.999981
v 2.749733 -0.750000 -0.999981
v 1.249733 0.750000 -0.999981
v 2.749733 0.750000 -0.999981
v 2.999733 0.750000 0.750019
v 2.999733 -0.750000 0.750019
v 2.999733 0.750000 -0.749981
v 2.999733 -0.750000 -0.749981
v 0.999733 0.750000 0.750019
v 0.999733 -0.750000 0.750019
v 0.999733 0.750000 -0.749981
v 0.999733 -0.750000 -0.749981
v 1.249733 -0.750000 1.000019
v 2.749733 -0.750000 1.000019
v 1.249733 0.750000 1.000019
v 2.749733 0.750000 1.000019
v 1.249733 1.000000 0.750019
v 2.749733 1.000000 0.750019
v 1.249733 1.000000 -0.749981
v 2.749733 1.000000 -0.749981
v 1.160828 0.967969 0.750019
v 2.838640 0.967969 0.750019
v 1.160828 0.967969 -0.749981
v 2.838640 0.967969 -0.749981
v 1.080984 0.918750 0.750019
v 2.918484 0.918750 0.750019
v 1.080984 0.918750 -0.749981
v 2.918484 0.918750 -0.749981
v 1.254108 0.838906 0.967989
v 2.749733 0.838906 0.967989
v 1.254108 0.838906 -0.967949
v 2.749733 0.838906 -0.967949
v 1.254108 0.967969 0.838926
v 2.749733 0.967969 0.838926
v 1.254108 0.967969 -0.838886
v 2.749733 0.967969 -0.838886
v 1.249733 0.918750 0.918771
v 2.749733 0.918750 0.918771
v 1.249733 0.918750 -0.918729
v 2.749733 0.918750 -0.918729
v 1.031765 0.838906 0.750019
v 2.967703 0.838906 0.750019
v 1.031765 0.838906 -0.749981
v 2.967703 0.838906 -0.749981
v 1.249733 -1.000000 -0.749981
v 2.749733 -1.000000 -0.749981
v 1.249733 -1.000000 0.750019
v 2.749733 -1.000000 0.750019
v 1.160828 -0.967969 -0.749981
v 2.838640 -0.967969 -0.749981
v 1.160828 -0.967969 0.750019
v 2.838640 -0.967969 0.750019
v 1.080984 -0.918750 -0.749981
v 2.918484 -0.918750 -0.749981
v 1.080984 -0.918750 0.750019
v 2.918484 -0.918750 0.750019
v 1.254108 -0.838906 -0.967949
v 2.749733 -0.838906 -0.967949
v 1.254108 -0.838906 0.967989
v 2.749733 -0.838906 0.967989
v 1.254108 -0.967969 -0.838886
v 2.749733 -0.967969 -0.838886
v 1.254108 -0.967969 0.838926
v 2.749733 -0.967969 0.838926
v 1.249733 -0.918750 -0.918729
v 2.749733 -0.918750 -0.918729
v 1.249733 -0.918750 0.918771
v 2.749733 -0.918750 0.918771
v 1.031765 -0.838906 -0.749981
v 2.967703 -0.838906 -0.749981
v 1.031765 -0.838906 0.750019
v 2.967703 -0.838906 0.750019
v 1.160828 -0.745625 -0.967949
v 1.031765 0.745625 -0.838886
v 1.160828 0.745625 -0.967949
v 1.031765 -0.745625 -0.838886
v 1.080984 -0.750000 -0.918729
v 1.080984 0.750000 -0.918729
v 1.030275 0.745625 0.837724
v 1.079469 0.750000 0.917548
v 1.160828 0.745625 0.967989
v 1.031765 -0.745625 0.838926
v 1.080984 -0.750000 0.918771
v 1.160828 -0.745625 0.967989
v 2.838640 -0.745625 0.967989
v 2.838640 0.745625 0.967989
v 2.967703 -0.745625 0.838926
v 2.967703 0.745625 0.838926
v 2.918484 -0.750000 0.918771
v 2.918484 0.750000 0.918771
v 2.918484 0.750000 -0.918729
v 2.918484 -0.750000 -0.918729
v 2.838640 0.745625 -0.967949
v 2.838640 -0.745625 -0.967949
v 2.967703 0.745625 -0.838886
v 2.967703 -0.745625 -0.838886
v 1.080984 -0.838910 0.838929
v 1.160823 0.918750 0.838929
v 1.080984 0.838910 0.838929
v 1.160823 0.838910 0.918771
v 1.160823 -0.918750 0.838929
v 1.160823 -0.838910 0.918771
v 2.838643 0.918750 -0.838891
v 2.838643 0.918750 0.838929
v 1.160823 0.918750 -0.838891
v 2.838643 -0.918750 0.838929
v 2.838643 -0.918750 -0.838891
v 1.160823 -0.918750 -0.838891
v 1.080984 -0.838910 -0.838891
v 1.160823 -0.838910 -0.918729
v 1.160823 0.838910 -0.918729
v 1.080984 0.838910 -0.838891
v 2.838643 0.838910 0.918771
v 2.918484 0.838910 0.838929
v 2.838643 -0.838910 0.918771
v 2.918484 -0.838910 0.838929
v 2.838643 0.838910 -0.918729
v 2.918484 0.838910 -0.838891
v 2.838643 -0.838910 -0.918729
v 2.918484 -0.838910 -0.838891
vn 0.0000 0.0000 -1.0000
vn -1.0000 0.0000 0.0000
vn 0.0000 0.0000 1.0000
vn 0.0000 1.0000 0.0000
vn 0.0000 0.9408 -0.3390
vn 0.5247 0.8513 0.0000
vn 0.0000 0.5248 -0.8513
vn -0.3390 0.9408 0.0000
vn -0.3194 0.8864 -0.3351
vn 0.3210 0.8910 -0.3210
vn 0.3210 0.8910 0.3210
vn -0.3194 0.8864 0.3351
vn 0.3390 0.9408 0.0000
vn 0.0000 0.9408 0.3390
vn 0.0000 0.8513 -0.5248
vn -0.4141 0.7848 0.4611
vn 0.0000 0.8513 0.5247
vn -0.5248 0.8513 0.0000
vn 0.8513 0.5247 0.0000
vn -0.8513 0.5248 0.0000
vn 0.0000 0.5247 0.8513
vn 0.0000 0.3389 0.9408
vn 0.0000 0.3390 -0.9408
vn -0.9408 0.3390 0.0000
vn 0.0000 -1.0000 -0.0000
vn 0.0000 -0.9408 0.3390
vn 0.5247 -0.8513 -0.0000
vn 0.0000 -0.5247 0.8513
vn -0.3390 -0.9408 -0.0000
vn -0.3194 -0.8864 0.3351
vn 0.3210 -0.8910 0.3210
vn 0.3210 -0.8910 -0.3210
vn -0.3194 -0.8864 -0.3351
vn 0.3390 -0.9408 -0.0000
vn 0.0000 -0.9408 -0.3390
vn -0.7700 -0.4747 0.4263
vn 0.0000 -0.8513 -0.5248
vn -0.5248 -0.8513 -0.0000
vn 0.8513 -0.5247 -0.0000
vn -0.8513 -0.5248 -0.0000
vn 0.0000 -0.5248 -0.8513
vn 0.0000 -0.8513 0.5247
vn 0.0000 -0.3389 0.9408
vn -0.9408 -0.3390 -0.0000
vn 0.0000 -0.3390 -0.9408
vn -0.3340 0.3340 -0.8814
vn -0.3390 0.0000 -0.9408
vn -0.3340 -0.3340 -0.8814
vn -0.8513 0.0000 -0.5248
vn -0.5248 0.0000 -0.8513
vn -0.9408 0.0000 -0.3390
vn -0.8864 0.3194 -0.3351
vn -0.8864 -0.3194 -0.3351
vn -0.9426 -0.0003 0.3340
vn -0.3389 0.0000 0.9408
vn -0.5259 0.0001 0.8506
vn -0.8513 -0.0004 0.5247
vn -0.8864 -0.3194 0.3351
vn -0.4191 -0.7944 0.4397
vn -0.7944 -0.4191 0.4397
vn -0.3340 -0.3340 0.8814
vn -0.8895 0.3205 0.3257
vn -0.7920 0.4249 0.4384
vn -0.3340 0.3340 0.8814
vn 0.5247 0.0000 0.8513
vn 0.8513 0.0000 0.5247
vn 0.3389 0.0000 0.9408
vn 0.3351 0.3194 0.8864
vn 0.3351 -0.3194 0.8864
vn 0.8513 0.0000 -0.5247
vn 0.5247 0.0000 -0.8513
vn 0.3390 0.0000 -0.9408
vn 0.3351 0.3194 -0.8864
vn 0.3351 -0.3194 -0.8864
vn -0.4747 0.7700 -0.4263
vn -0.4191 0.7944 -0.4397
vn 0.9408 -0.3389 -0.0000
vn -0.4747 0.7700 0.4263
vn -0.4191 0.7944 0.4397
vn -0.4141 0.4611 0.7848
vn -0.7700 0.4747 0.4263
vn -0.7828 0.4196 0.4595
vn -0.4229 0.4229 0.8015
vn -0.4636 0.4134 0.7837
vn -0.5969 0.5969 0.5360
vn -0.5963 0.5374 0.5963
vn -0.5360 0.5969 0.5969
vn -0.5774 0.5773 0.5773
vn -0.7848 -0.4141 0.4611
vn -0.4611 -0.4141 0.7848
vn -0.4141 -0.7848 0.4611
vn -0.4747 -0.7700 0.4263
vn -0.5969 -0.5969 0.5360
vn -0.5969 -0.5360 0.5969
vn -0.4229 -0.4229 0.8015
vn -0.4141 -0.4611 0.7848
vn -0.5360 -0.5969 0.5969
vn -0.5774 -0.5773 0.5773
vn 0.4611 -0.4141 0.7848
vn 0.7848 -0.4141 0.4611
vn 0.4747 -0.7700 0.4263
vn 0.4747 0.7700 0.4263
vn 0.7700 0.4747 0.4263
vn 0.4263 0.4747 0.7700
vn 0.4263 0.7700 -0.4747
vn 0.4263 0.4747 -0.7700
vn 0.7700 0.4747 -0.4263
vn 0.7848 -0.4141 -0.4611
vn 0.4611 -0.4141 -0.7848
vn 0.4263 -0.7700 -0.4747
vn -0.4141 0.7848 -0.4611
vn -0.7700 0.4747 -0.4263
vn -0.4141 0.4611 -0.7848
vn -0.4611 -0.4141 -0.7848
vn -0.7848 -0.4141 -0.4611
vn -0.4747 -0.7700 -0.4263
vn -0.5969 0.5969 -0.5360
vn -0.5360 0.5969 -0.5969
vn -0.5774 0.5773 -0.5774
vn -0.4229 0.4229 -0.8015
vn -0.4611 0.4141 -0.7848
vn -0.5969 0.5360 -0.5969
vn -0.7848 0.4141 -0.4611
vn -0.7944 0.4191 -0.4397
vn -0.4191 -0.7944 -0.4397
vn -0.4141 -0.7848 -0.4611
vn -0.4229 -0.4229 -0.8015
vn -0.5969 -0.5360 -0.5969
vn -0.7944 -0.4191 -0.4397
vn -0.7700 -0.4747 -0.4263
vn -0.5969 -0.5969 -0.5360
vn -0.5774 -0.5773 -0.5774
vn -0.4141 -0.4611 -0.7848
vn -0.5360 -0.5969 -0.5969
vn 0.4359 -0.7874 -0.4359
vn 0.4747 -0.7700 -0.4263
vn 0.7944 -0.4191 -0.4397
vn 0.5969 -0.5360 -0.5969
vn 0.4397 -0.4191 -0.7944
vn 0.4263 -0.4747 -0.7700
vn 0.5360 -0.5969 -0.5969
vn 0.5773 -0.5774 -0.5774
vn 0.7701 -0.4747 -0.4263
vn 0.5969 -0.5969 -0.5360
vn 0.7944 0.4191 -0.4397
vn 0.7848 0.4141 -0.4611
vn 0.4359 0.7874 -0.4359
vn 0.5360 0.5969 -0.5969
vn 0.4397 0.4191 -0.7944
vn 0.4611 0.4141 -0.7848
vn 0.5969 0.5360 -0.5969
vn 0.5773 0.5774 -0.5774
vn 0.5969 0.5969 -0.5360
vn 0.4747 0.7700 -0.4263
vn 0.4359 0.7874 0.4359
vn 0.4263 0.7700 0.4747
vn 0.5360 0.5969 0.5969
vn 0.4397 0.4191 0.7944
vn 0.4611 0.4141 0.7848
vn 0.5969 0.5969 0.5360
vn 0.7944 0.4191 0.4397
vn 0.7848 0.4141 0.4611
vn 0.5969 0.5360 0.5969
vn 0.5773 0.5774 0.5773
vn 0.7944 -0.4191 0.4397
vn 0.5969 -0.5360 0.5969
vn 0.4397 -0.4191 0.7944
vn 0.4263 -0.4747 0.7700
vn 0.4359 -0.7874 0.4359
vn 0.4263 -0.7700 0.4747
vn 0.5360 -0.5969 0.5969
vn 0.5773 -0.5774 0.5773
vn 0.5969 -0.5969 0.5360
vn 0.7701 -0.4747 0.4263
vn 1.0000 0.0000 0.0000
vn 0.9408 0.3389 0.0000
vn 0.9408 0.0000 0.3389
vn 0.8864 0.3193 0.3351
vn 0.8864 -0.3193 0.3351
vn 0.9408 0.0000 -0.3389
vn 0.8864 0.3194 -0.3351
vn 0.8864 -0.3194 -0.3351
vn 0.7700 -0.4747 -0.4263
vn 0.5773 0.5773 -0.5774
vn 0.8864 -0.3194 0.3351
vn 0.8864 0.3194 0.3351
usemtl None
s off
f 1//1 3//1 4//1 2//1
f 5//2 7//2 8//2 6//2
f 9//3 10//3 12//3 11//3
f 13//4 14//4 16//4 15//4
f 16//5 32//5 31//5 15//5
f 18//6 22//6 24//6 20//6
f 27//7 35//7 36//7 28//7
f 13//8 15//8 19//8 17//8
f 19//9 15//9 31//9
f 20//10 32//10 16//10
f 18//11 14//11 30//11
f 17//12 29//12 13//12
f 14//13 18//13 20//13 16//13
f 13//14 29//14 30//14 14//14
f 31//15 32//15 36//15 35//15
f 33//16 29//16 94//16
f 29//17 33//17 34//17 30//17
f 19//18 23//18 21//18 17//18
f 38//19 40//19 24//19 22//19
f 39//20 37//20 21//20 23//20
f 25//21 26//21 34//21 33//21
f 11//22 12//22 26//22 25//22
f 3//23 27//23 28//23 4//23
f 7//24 5//24 37//24 39//24
f 41//25 42//25 44//25 43//25
f 44//26 60//26 59//26 43//26
f 46//27 50//27 52//27 48//27
f 55//28 63//28 64//28 56//28
f 41//29 43//29 47//29 45//29
f 47//30 43//30 59//30
f 48//31 60//31 44//31
f 46//32 42//32 58//32
f 45//33 57//33 41//33
f 42//34 46//34 48//34 44//34
f 41//35 57//35 58//35 42//35
f 51//36 93//36 67//36
f 57//37 61//37 62//37 58//37
f 47//38 51//38 49//38 45//38
f 66//39 68//39 52//39 50//39
f 67//40 65//40 49//40 51//40
f 53//41 54//41 62//41 61//41
f 59//42 60//42 64//42 63//42
f 9//43 55//43 56//43 10//43
f 6//44 8//44 65//44 67//44
f 1//45 2//45 54//45 53//45
f 27//46 3//46 71//46
f 1//47 69//47 71//47 3//47
f 53//48 69//48 1//48
f 72//49 70//49 74//49 73//49
f 69//50 73//50 74//50 71//50
f 7//51 70//51 72//51 8//51
f 39//52 70//52 7//52
f 65//53 8//53 72//53
f 5//54 6//54 78//54 75//54
f 11//55 77//55 80//55 9//55
f 77//56 76//56 79//56 80//56
f 78//57 79//57 76//57 75//57
f 6//58 67//58 78//58
f 59//59 97//59 47//59
f 78//60 67//60 93//60
f 9//61 80//61 55//61
f 37//62 5//62 75//62
f 75//63 95//63 37//63
f 25//64 77//64 11//64
f 82//65 81//65 85//65 86//65
f 84//66 86//66 85//66 83//66
f 12//67 10//67 81//67 82//67
f 26//68 12//68 82//68
f 56//69 81//69 10//69
f 87//70 91//70 92//70 88//70
f 87//71 88//71 90//71 89//71
f 4//72 89//72 90//72 2//72
f 28//73 89//73 4//73
f 54//74 2//74 90//74
f 23//75 19//75 101//75
f 31//76 101//76 19//76
f 66//77 128//77 126//77 68//77
f 17//78 21//78 94//78
f 17//79 94//79 29//79
f 33//80 96//80 25//80
f 21//81 37//81 95//81
f 76//82 95//82 75//82
f 77//83 25//83 96//83
f 76//84 77//84 96//84
f 94//85 21//85 95//85
f 95//86 76//86 96//86
f 33//87 94//87 96//87
f 95//88 96//88 94//88
f 79//89 78//89 93//89
f 80//90 79//90 98//90
f 63//91 97//91 59//91
f 51//92 47//92 97//92
f 93//93 51//93 97//93
f 79//94 93//94 98//94
f 80//95 98//95 55//95
f 55//96 98//96 63//96
f 63//97 98//97 97//97
f 97//98 98//98 93//98
f 81//99 111//99 85//99
f 112//100 83//100 85//100
f 48//101 52//101 102//101
f 18//102 100//102 22//102
f 38//103 22//103 110//103
f 26//104 109//104 34//104
f 36//105 32//105 99//105
f 28//106 36//106 113//106
f 24//107 40//107 114//107
f 116//108 88//108 92//108
f 115//109 90//109 88//109
f 62//110 103//110 58//110
f 35//111 101//111 31//111
f 39//112 23//112 108//112
f 35//113 27//113 107//113
f 106//114 73//114 69//114
f 105//115 72//115 73//115
f 45//116 49//116 104//116
f 108//117 23//117 101//117
f 35//118 107//118 101//118
f 101//119 107//119 108//119
f 71//120 107//120 27//120
f 74//121 107//121 71//121
f 107//122 74//122 108//122
f 74//123 70//123 108//123
f 70//124 39//124 108//124
f 45//125 104//125 57//125
f 57//126 104//126 61//126
f 69//127 53//127 106//127
f 73//128 106//128 105//128
f 72//129 105//129 65//129
f 49//130 65//130 105//130
f 104//131 49//131 105//131
f 105//132 106//132 104//132
f 53//133 61//133 106//133
f 104//134 106//134 61//134
f 58//135 103//135 46//135
f 50//136 46//136 103//136
f 92//137 66//137 116//137
f 88//138 116//138 115//138
f 90//139 115//139 54//139
f 54//140 115//140 62//140
f 62//141 115//141 103//141
f 115//142 116//142 103//142
f 50//143 116//143 66//143
f 103//144 116//144 50//144
f 91//145 114//145 40//145
f 91//146 87//146 114//146
f 32//147 20//147 99//147
f 36//148 99//148 113//148
f 89//149 28//149 113//149
f 89//150 113//150 87//150
f 114//151 87//151 113//151
f 113//152 99//152 114//152
f 114//153 99//153 24//153
f 24//154 99//154 20//154
f 18//155 30//155 100//155
f 30//156 34//156 100//156
f 109//157 100//157 34//157
f 82//158 109//158 26//158
f 86//159 109//159 82//159
f 100//160 110//160 22//160
f 84//161 38//161 110//161
f 86//162 84//162 110//162
f 109//163 86//163 110//163
f 100//164 109//164 110//164
f 83//165 112//165 68//165
f 85//166 111//166 112//166
f 81//167 56//167 111//167
f 56//168 64//168 111//168
f 48//169 102//169 60//169
f 60//170 102//170 64//170
f 111//171 64//171 102//171
f 112//172 111//172 102//172
f 102//173 52//173 112//173
f 52//174 68//174 112//174
f 117//1 119//1 120//1 118//1
f 121//175 122//175 124//175 123//175
f 129//3 130//3 132//3 131//3
f 133//4 134//4 136//4 135//4
f 136//5 152//5 151//5 135//5
f 138//6 142//6 144//6 140//6
f 147//7 155//7 156//7 148//7
f 133//8 135//8 139//8 137//8
f 139//9 135//9 151//9
f 140//10 152//10 136//10
f 138//11 134//11 150//11
f 137//12 149//12 133//12
f 134//13 138//13 140//13 136//13
f 133//14 149//14 150//14 134//14
f 151//15 152//15 156//15 155//15
f 153//16 149//16 214//16
f 149//17 153//17 154//17 150//17
f 139//18 143//18 141//18 137//18
f 158//19 160//19 144//19 142//19
f 159//20 157//20 141//20 143//20
f 145//21 146//21 154//21 153//21
f 121//176 123//176 160//176 158//176
f 131//22 132//22 146//22 145//22
f 119//23 147//23 148//23 120//23
f 127//24 125//24 157//24 159//24
f 161//25 162//25 164//25 163//25
f 164//26 180//26 179//26 163//26
f 166//27 170//27 172//27 168//27
f 175//28 183//28 184//28 176//28
f 161//29 163//29 167//29 165//29
f 167//30 163//30 179//30
f 168//31 180//31 164//31
f 166//32 162//32 178//32
f 165//33 177//33 161//33
f 162//34 166//34 168//34 164//34
f 161//35 177//35 178//35 162//35
f 171//36 213//36 187//36
f 177//37 181//37 182//37 178//37
f 167//38 171//38 169//38 165//38
f 186//39 188//39 172//39 170//39
f 187//40 185//40 169//40 171//40
f 173//41 174//41 182//41 181//41
f 179//42 180//42 184//42 183//42
f 124//77 122//77 188//77 186//77
f 129//43 175//43 176//43 130//43
f 126//44 128//44 185//44 187//44
f 117//45 118//45 174//45 173//45
f 147//46 119//46 191//46
f 117//47 189//47 191//47 119//47
f 173//48 189//48 117//48
f 192//49 190//49 194//49 193//49
f 189//50 193//50 194//50 191//50
f 127//51 190//51 192//51 128//51
f 159//52 190//52 127//52
f 185//53 128//53 192//53
f 125//54 126//54 198//54 195//54
f 131//55 197//55 200//55 129//55
f 197//56 196//56 199//56 200//56
f 198//57 199//57 196//57 195//57
f 126//58 187//58 198//58
f 179//59 217//59 167//59
f 198//60 187//60 213//60
f 129//61 200//61 175//61
f 157//62 125//62 195//62
f 195//63 215//63 157//63
f 145//64 197//64 131//64
f 202//65 201//65 205//65 206//65
f 204//177 203//177 122//177 121//177
f 204//66 206//66 205//66 203//66
f 132//67 130//67 201//67 202//67
f 146//68 132//68 202//68
f 158//178 204//178 121//178
f 188//179 122//179 203//179
f 176//69 201//69 130//69
f 207//70 211//70 212//70 208//70
f 207//71 208//71 210//71 209//71
f 120//72 209//72 210//72 118//72
f 123//180 124//180 212//180 211//180
f 148//73 209//73 120//73
f 160//181 123//181 211//181
f 174//74 118//74 210//74
f 143//75 139//75 221//75
f 151//76 221//76 139//76
f 186//182 212//182 124//182
f 137//78 141//78 214//78
f 137//79 214//79 149//79
f 153//80 216//80 145//80
f 141//81 157//81 215//81
f 196//82 215//82 195//82
f 197//83 145//83 216//83
f 196//84 197//84 216//84
f 214//85 141//85 215//85
f 215//86 196//86 216//86
f 153//87 214//87 216//87
f 215//88 216//88 214//88
f 199//89 198//89 213//89
f 200//90 199//90 218//90
f 183//91 217//91 179//91
f 171//92 167//92 217//92
f 213//93 171//93 217//93
f 199//94 213//94 218//94
f 200//95 218//95 175//95
f 175//96 218//96 183//96
f 183//97 218//97 217//97
f 217//98 218//98 213//98
f 201//99 231//99 205//99
f 232//100 203//100 205//100
f 168//101 172//101 222//101
f 138//102 220//102 142//102
f 158//103 142//103 230//103
f 146//104 229//104 154//104
f 156//105 152//105 219//105
f 148//106 156//106 233//106
f 144//107 160//107 234//107
f 236//108 208//108 212//108
f 235//109 210//109 208//109
f 182//110 223//110 178//110
f 155//111 221//111 151//111
f 159//112 143//112 228//112
f 155//113 147//113 227//113
f 226//114 193//114 189//114
f 225//115 192//115 193//115
f 165//116 169//116 224//116
f 228//117 143//117 221//117
f 155//118 227//118 221//118
f 221//119 227//119 228//119
f 191//120 227//120 147//120
f 194//121 227//121 191//121
f 227//122 194//122 228//122
f 194//123 190//123 228//123
f 190//124 159//124 228//124
f 165//125 224//125 177//125
f 177//126 224//126 181//126
f 189//127 173//127 226//127
f 193//128 226//128 225//128
f 192//129 225//129 185//129
f 169//130 185//130 225//130
f 224//131 169//131 225//131
f 225//132 226//132 224//132
f 173//133 181//133 226//133
f 224//134 226//134 181//134
f 178//135 223//135 166//135
f 170//136 166//136 223//136
f 212//137 186//137 236//137
f 208//138 236//138 235//138
f 210//139 235//139 174//139
f 174//140 235//140 182//140
f 182//141 235//141 223//141
f 235//142 236//142 223//142
f 170//183 236//183 186//183
f 223//144 236//144 170//144
f 211//145 234//145 160//145
f 211//146 207//146 234//146
f 152//147 140//147 219//147
f 156//148 219//148 233//148
f 209//149 148//149 233//149
f 209//150 233//150 207//150
f 234//151 207//151 233//151
f 233//184 219//184 234//184
f 234//153 219//153 144//153
f 144//154 219//154 140//154
f 138//155 150//155 220//155
f 150//156 154//156 220//156
f 229//157 220//157 154//157
f 202//158 229//158 146//158
f 206//159 229//159 202//159
f 220//160 230//160 142//160
f 204//161 158//161 230//161
f 206//162 204//162 230//162
f 229//163 206//163 230//163
f 220//164 229//164 230//164
f 203//165 232//165 188//165
f 205//166 231//166 232//166
f 201//167 176//167 231//167
f 176//168 184//168 231//168
f 168//169 222//169 180//169
f 180//170 222//170 184//170
f 231//171 184//171 222//171
f 232//172 231//172 222//172
f 222//173 172//173 232//173
f 172//174 188//174 232//174
f 83//177 126//177 125//177 84//177
f 83//185 68//185 126//185
f 91//180 127//180 128//180 92//180
f 128//182 66//182 92//182
f 38//176 125//176 127//176 40//176
f 91//181 40//181 127//181
f 84//186 125//186 38//186
